<svg id="visual" viewBox="0 0 900 600" width="900" height="600" xmlns="http://www.w3.org/2000/svg" xmlns:xlink="http://www.w3.org/1999/xlink" version="1.1"><path d="M98 600L28 600L28 533L134 533L134 467L53 467L53 400L131 400L131 333L38 333L38 267L131 267L131 200L118 200L118 133L64 133L64 67L5 67L5 0L900 0L900 67L900 67L900 133L900 133L900 200L900 200L900 267L900 267L900 333L900 333L900 400L900 400L900 467L900 467L900 533L900 533L900 600L900 600Z" fill="#634a8e"></path><path d="M173 600L127 600L127 533L181 533L181 467L119 467L119 400L166 400L166 333L189 333L189 267L183 267L183 200L125 200L125 133L204 133L204 67L168 67L168 0L900 0L900 67L900 67L900 133L900 133L900 200L900 200L900 267L900 267L900 333L900 333L900 400L900 400L900 467L900 467L900 533L900 533L900 600L900 600Z" fill="#664c95"></path><path d="M189 600L257 600L257 533L258 533L258 467L163 467L163 400L199 400L199 333L180 333L180 267L157 267L157 200L276 200L276 133L266 133L266 67L178 67L178 0L900 0L900 67L900 67L900 133L900 133L900 200L900 200L900 267L900 267L900 333L900 333L900 400L900 400L900 467L900 467L900 533L900 533L900 600L900 600Z" fill="#684e9c"></path><path d="M242 600L242 600L242 533L344 533L344 467L243 467L243 400L266 400L266 333L314 333L314 267L288 267L288 200L259 200L259 133L303 133L303 67L226 67L226 0L900 0L900 67L900 67L900 133L900 133L900 200L900 200L900 267L900 267L900 333L900 333L900 400L900 400L900 467L900 467L900 533L900 533L900 600L900 600Z" fill="#6b50a2"></path><path d="M295 600L410 600L410 533L329 533L329 467L312 467L312 400L283 400L283 333L298 333L298 267L330 267L330 200L380 200L380 133L306 133L306 67L410 67L410 0L900 0L900 67L900 67L900 133L900 133L900 200L900 200L900 267L900 267L900 333L900 333L900 400L900 400L900 467L900 467L900 533L900 533L900 600L900 600Z" fill="#6d53a9"></path><path d="M399 600L453 600L453 533L425 533L425 467L471 467L471 400L447 400L447 333L465 333L465 267L391 267L391 200L453 200L453 133L396 133L396 67L398 67L398 0L900 0L900 67L900 67L900 133L900 133L900 200L900 200L900 267L900 267L900 333L900 333L900 400L900 400L900 467L900 467L900 533L900 533L900 600L900 600Z" fill="#6f55b0"></path><path d="M485 600L495 600L495 533L534 533L534 467L447 467L447 400L477 400L477 333L432 333L432 267L553 267L553 200L473 200L473 133L520 133L520 67L515 67L515 0L900 0L900 67L900 67L900 133L900 133L900 200L900 200L900 267L900 267L900 333L900 333L900 400L900 400L900 467L900 467L900 533L900 533L900 600L900 600Z" fill="#7157b8"></path><path d="M503 600L531 600L531 533L607 533L607 467L587 467L587 400L585 400L585 333L591 333L591 267L494 267L494 200L603 200L603 133L540 133L540 67L559 67L559 0L900 0L900 67L900 67L900 133L900 133L900 200L900 200L900 267L900 267L900 333L900 333L900 400L900 400L900 467L900 467L900 533L900 533L900 600L900 600Z" fill="#735abf"></path><path d="M580 600L609 600L609 533L606 533L606 467L666 467L666 400L556 400L556 333L561 333L561 267L670 267L670 200L640 200L640 133L622 133L622 67L665 67L665 0L900 0L900 67L900 67L900 133L900 133L900 200L900 200L900 267L900 267L900 333L900 333L900 400L900 400L900 467L900 467L900 533L900 533L900 600L900 600Z" fill="#755cc6"></path><path d="M674 600L680 600L680 533L746 533L746 467L688 467L688 400L692 400L692 333L756 333L756 267L699 267L699 200L628 200L628 133L738 133L738 67L647 67L647 0L900 0L900 67L900 67L900 133L900 133L900 200L900 200L900 267L900 267L900 333L900 333L900 400L900 400L900 467L900 467L900 533L900 533L900 600L900 600Z" fill="#765fce"></path><path d="M801 600L698 600L698 533L803 533L803 467L752 467L752 400L811 400L811 333L693 333L693 267L741 267L741 200L760 200L760 133L796 133L796 67L722 67L722 0L900 0L900 67L900 67L900 133L900 133L900 200L900 200L900 267L900 267L900 333L900 333L900 400L900 400L900 467L900 467L900 533L900 533L900 600L900 600Z" fill="#7861d5"></path><path d="M888 600L822 600L822 533L765 533L765 467L843 467L843 400L801 400L801 333L809 333L809 267L838 267L838 200L830 200L830 133L839 133L839 67L877 67L877 0L900 0L900 67L900 67L900 133L900 133L900 200L900 200L900 267L900 267L900 333L900 333L900 400L900 400L900 467L900 467L900 533L900 533L900 600L900 600Z" fill="#7964dd"></path></svg>