<svg id="visual" viewBox="0 0 900 600" width="900" height="600" xmlns="http://www.w3.org/2000/svg" xmlns:xlink="http://www.w3.org/1999/xlink" version="1.1"><rect x="0" y="0" width="900" height="600" fill="#231861"></rect><defs><linearGradient id="grad1_0" x1="33.3%" y1="100%" x2="100%" y2="0%"><stop offset="20%" stop-color="#634a8e" stop-opacity="1"></stop><stop offset="80%" stop-color="#634a8e" stop-opacity="1"></stop></linearGradient></defs><defs><linearGradient id="grad1_1" x1="33.3%" y1="100%" x2="100%" y2="0%"><stop offset="20%" stop-color="#634a8e" stop-opacity="1"></stop><stop offset="80%" stop-color="#543d82" stop-opacity="1"></stop></linearGradient></defs><defs><linearGradient id="grad1_2" x1="33.3%" y1="100%" x2="100%" y2="0%"><stop offset="20%" stop-color="#443077" stop-opacity="1"></stop><stop offset="80%" stop-color="#543d82" stop-opacity="1"></stop></linearGradient></defs><defs><linearGradient id="grad1_3" x1="33.3%" y1="100%" x2="100%" y2="0%"><stop offset="20%" stop-color="#443077" stop-opacity="1"></stop><stop offset="80%" stop-color="#34246c" stop-opacity="1"></stop></linearGradient></defs><defs><linearGradient id="grad1_4" x1="33.3%" y1="100%" x2="100%" y2="0%"><stop offset="20%" stop-color="#231861" stop-opacity="1"></stop><stop offset="80%" stop-color="#34246c" stop-opacity="1"></stop></linearGradient></defs><defs><linearGradient id="grad2_0" x1="0%" y1="100%" x2="66.7%" y2="0%"><stop offset="20%" stop-color="#634a8e" stop-opacity="1"></stop><stop offset="80%" stop-color="#634a8e" stop-opacity="1"></stop></linearGradient></defs><defs><linearGradient id="grad2_1" x1="0%" y1="100%" x2="66.7%" y2="0%"><stop offset="20%" stop-color="#543d82" stop-opacity="1"></stop><stop offset="80%" stop-color="#634a8e" stop-opacity="1"></stop></linearGradient></defs><defs><linearGradient id="grad2_2" x1="0%" y1="100%" x2="66.7%" y2="0%"><stop offset="20%" stop-color="#543d82" stop-opacity="1"></stop><stop offset="80%" stop-color="#443077" stop-opacity="1"></stop></linearGradient></defs><defs><linearGradient id="grad2_3" x1="0%" y1="100%" x2="66.7%" y2="0%"><stop offset="20%" stop-color="#34246c" stop-opacity="1"></stop><stop offset="80%" stop-color="#443077" stop-opacity="1"></stop></linearGradient></defs><defs><linearGradient id="grad2_4" x1="0%" y1="100%" x2="66.7%" y2="0%"><stop offset="20%" stop-color="#34246c" stop-opacity="1"></stop><stop offset="80%" stop-color="#231861" stop-opacity="1"></stop></linearGradient></defs><g transform="translate(900, 600)"><path d="M-432.7 0C-439.8 -18.9 -447 -37.7 -429.5 -52.2C-412.1 -66.6 -370 -76.6 -338.9 -83.5C-307.7 -90.4 -287.4 -94.2 -290.8 -110.3C-294.2 -126.4 -321.2 -154.9 -321.4 -168.7C-321.6 -182.5 -295.1 -181.5 -299.6 -206.8C-304.1 -232.1 -339.6 -283.7 -320.4 -283.8C-301.1 -283.9 -227 -232.4 -195.6 -220.8C-164.2 -209.2 -175.4 -237.6 -171 -247.7C-166.5 -257.8 -146.4 -249.7 -138.5 -263.9C-130.5 -278 -134.8 -314.5 -129.8 -342.2C-124.8 -370 -110.5 -389 -93.6 -379.6C-76.6 -370.3 -56.9 -332.4 -40.9 -336.5C-24.8 -340.6 -12.4 -386.6 0 -432.7L0 0Z" fill="#2c1e66"></path><path d="M-346.1 0C-351.9 -15.1 -357.6 -30.2 -343.6 -41.7C-329.7 -53.3 -296 -61.3 -271.1 -66.8C-246.2 -72.3 -229.9 -75.3 -232.6 -88.2C-235.3 -101.1 -257 -123.9 -257.1 -135C-257.3 -146 -236.1 -145.2 -239.7 -165.4C-243.2 -185.7 -271.7 -227 -256.3 -227.1C-240.9 -227.1 -181.6 -185.9 -156.5 -176.6C-131.4 -167.4 -140.3 -190.1 -136.8 -198.2C-133.2 -206.3 -117.1 -199.8 -110.8 -211.1C-104.4 -222.4 -107.8 -251.6 -103.8 -273.8C-99.8 -296 -88.4 -311.2 -74.9 -303.7C-61.3 -296.2 -45.5 -265.9 -32.7 -269.2C-19.8 -272.5 -9.9 -309.3 0 -346.1L0 0Z" fill="#3c2a72"></path><path d="M-259.6 0C-263.9 -11.3 -268.2 -22.6 -257.7 -31.3C-247.2 -40 -222 -46 -203.3 -50.1C-184.6 -54.2 -172.4 -56.5 -174.5 -66.2C-176.5 -75.8 -192.7 -93 -192.9 -101.2C-193 -109.5 -177 -108.9 -179.7 -124.1C-182.4 -139.3 -203.8 -170.2 -192.2 -170.3C-180.7 -170.3 -136.2 -139.4 -117.4 -132.5C-98.5 -125.5 -105.3 -142.6 -102.6 -148.6C-99.9 -154.7 -87.9 -149.8 -83.1 -158.3C-78.3 -166.8 -80.9 -188.7 -77.9 -205.3C-74.9 -222 -66.3 -233.4 -56.1 -227.8C-46 -222.2 -34.1 -199.5 -24.5 -201.9C-14.9 -204.4 -7.4 -232 0 -259.6L0 0Z" fill="#4c367d"></path><path d="M-173.1 0C-175.9 -7.5 -178.8 -15.1 -171.8 -20.9C-164.8 -26.6 -148 -30.7 -135.5 -33.4C-123.1 -36.2 -115 -37.7 -116.3 -44.1C-117.7 -50.6 -128.5 -62 -128.6 -67.5C-128.7 -73 -118 -72.6 -119.8 -82.7C-121.6 -92.8 -135.8 -113.5 -128.1 -113.5C-120.4 -113.6 -90.8 -93 -78.2 -88.3C-65.7 -83.7 -70.2 -95 -68.4 -99.1C-66.6 -103.1 -58.6 -99.9 -55.4 -105.5C-52.2 -111.2 -53.9 -125.8 -51.9 -136.9C-49.9 -148 -44.2 -155.6 -37.4 -151.9C-30.6 -148.1 -22.8 -133 -16.3 -134.6C-9.9 -136.3 -5 -154.7 0 -173.1L0 0Z" fill="#5b4388"></path><path d="M-86.5 0C-88 -3.8 -89.4 -7.5 -85.9 -10.4C-82.4 -13.3 -74 -15.3 -67.8 -16.7C-61.5 -18.1 -57.5 -18.8 -58.2 -22.1C-58.8 -25.3 -64.2 -31 -64.3 -33.7C-64.3 -36.5 -59 -36.3 -59.9 -41.4C-60.8 -46.4 -67.9 -56.7 -64.1 -56.8C-60.2 -56.8 -45.4 -46.5 -39.1 -44.2C-32.8 -41.8 -35.1 -47.5 -34.2 -49.5C-33.3 -51.6 -29.3 -49.9 -27.7 -52.8C-26.1 -55.6 -27 -62.9 -26 -68.4C-25 -74 -22.1 -77.8 -18.7 -75.9C-15.3 -74.1 -11.4 -66.5 -8.2 -67.3C-5 -68.1 -2.5 -77.3 0 -86.5L0 0Z" fill="#634a8e"></path></g><g transform="translate(0, 0)"><path d="M432.7 0C357.2 8.1 281.7 16.3 287.9 35C294 53.6 381.8 82.8 399.1 98.4C416.3 113.9 363.2 115.9 358.1 135.8C353 155.7 396 193.5 380.7 199.8C365.5 206.1 291.9 180.9 270.8 186.9C249.6 192.9 280.9 230.2 294.2 260.6C307.4 291 302.7 314.4 286.9 323.9C271.1 333.4 244.3 329 218.1 316C192 303.1 166.5 281.6 158 301.1C149.5 320.5 157.9 380.7 145.7 384.3C133.5 387.9 100.7 334.7 82.8 335.9C64.9 337.2 62 392.8 50.7 417.9C39.4 443.1 19.7 437.9 0 432.7L0 0Z" fill="#2c1e66"></path><path d="M346.1 0C285.8 6.5 225.4 13 230.3 28C235.2 42.9 305.4 66.2 319.2 78.7C333.1 91.1 290.6 92.7 286.5 108.7C282.4 124.6 316.8 154.8 304.6 159.9C292.4 164.9 233.5 144.7 216.6 149.5C199.7 154.3 224.7 184.2 235.3 208.5C245.9 232.8 242.2 251.5 229.5 259.1C216.9 266.7 195.4 263.2 174.5 252.8C153.6 242.5 133.2 225.3 126.4 240.8C119.6 256.4 126.4 304.6 116.6 307.4C106.8 310.3 80.5 267.8 66.2 268.8C51.9 269.7 49.6 314.2 40.6 334.3C31.6 354.5 15.8 350.3 0 346.1L0 0Z" fill="#3c2a72"></path><path d="M259.6 0C214.3 4.9 169 9.8 172.7 21C176.4 32.2 229.1 49.7 239.4 59C249.8 68.4 217.9 69.5 214.9 81.5C211.8 93.4 237.6 116.1 228.4 119.9C219.3 123.7 175.1 108.5 162.5 112.1C149.8 115.8 168.5 138.1 176.5 156.4C184.5 174.6 181.6 188.6 172.1 194.3C162.7 200 146.6 197.4 130.9 189.6C115.2 181.9 99.9 169 94.8 180.6C89.7 192.3 94.8 228.4 87.4 230.6C80.1 232.7 60.4 200.8 49.7 201.6C39 202.3 37.2 235.7 30.4 250.8C23.7 265.9 11.8 262.7 0 259.6L0 0Z" fill="#4c367d"></path><path d="M173.1 0C142.9 3.3 112.7 6.5 115.2 14C117.6 21.4 152.7 33.1 159.6 39.3C166.5 45.6 145.3 46.4 143.2 54.3C141.2 62.3 158.4 77.4 152.3 79.9C146.2 82.4 116.8 72.3 108.3 74.8C99.8 77.2 112.4 92.1 117.7 104.2C123 116.4 121.1 125.7 114.8 129.5C108.4 133.3 97.7 131.6 87.3 126.4C76.8 121.2 66.6 112.7 63.2 120.4C59.8 128.2 63.2 152.3 58.3 153.7C53.4 155.1 40.3 133.9 33.1 134.4C26 134.9 24.8 157.1 20.3 167.2C15.8 177.2 7.9 175.2 0 173.1L0 0Z" fill="#5b4388"></path><path d="M86.5 0C71.4 1.6 56.3 3.3 57.6 7C58.8 10.7 76.4 16.6 79.8 19.7C83.3 22.8 72.6 23.2 71.6 27.2C70.6 31.1 79.2 38.7 76.1 40C73.1 41.2 58.4 36.2 54.2 37.4C49.9 38.6 56.2 46 58.8 52.1C61.5 58.2 60.5 62.9 57.4 64.8C54.2 66.7 48.9 65.8 43.6 63.2C38.4 60.6 33.3 56.3 31.6 60.2C29.9 64.1 31.6 76.1 29.1 76.9C26.7 77.6 20.1 66.9 16.6 67.2C13 67.4 12.4 78.6 10.1 83.6C7.9 88.6 3.9 87.6 0 86.5L0 0Z" fill="#634a8e"></path></g></svg>