<svg id="visual" viewBox="0 0 900 675" width="900" height="675" xmlns="http://www.w3.org/2000/svg" xmlns:xlink="http://www.w3.org/1999/xlink" version="1.1"><path d="M0 311L15 322.5C30 334 60 357 90 352.7C120 348.3 150 316.7 180 299.8C210 283 240 281 270 293.8C300 306.7 330 334.3 360 336.3C390 338.3 420 314.7 450 302.5C480 290.3 510 289.7 540 296.2C570 302.7 600 316.3 630 320.3C660 324.3 690 318.7 720 321.5C750 324.3 780 335.7 810 330.5C840 325.3 870 303.7 885 292.8L900 282L900 0L885 0C870 0 840 0 810 0C780 0 750 0 720 0C690 0 660 0 630 0C600 0 570 0 540 0C510 0 480 0 450 0C420 0 390 0 360 0C330 0 300 0 270 0C240 0 210 0 180 0C150 0 120 0 90 0C60 0 30 0 15 0L0 0Z" fill="#5846be"></path><path d="M0 269L15 280.8C30 292.7 60 316.3 90 324.8C120 333.3 150 326.7 180 327.2C210 327.7 240 335.3 270 329.3C300 323.3 330 303.7 360 286.8C390 270 420 256 450 257.3C480 258.7 510 275.3 540 289.2C570 303 600 314 630 323.5C660 333 690 341 720 336.8C750 332.7 780 316.3 810 296.7C840 277 870 254 885 242.5L900 231L900 0L885 0C870 0 840 0 810 0C780 0 750 0 720 0C690 0 660 0 630 0C600 0 570 0 540 0C510 0 480 0 450 0C420 0 390 0 360 0C330 0 300 0 270 0C240 0 210 0 180 0C150 0 120 0 90 0C60 0 30 0 15 0L0 0Z" fill="#503fb0"></path><path d="M0 306L15 297C30 288 60 270 90 251.3C120 232.7 150 213.3 180 215.7C210 218 240 242 270 249.5C300 257 330 248 360 248.3C390 248.7 420 258.3 450 255.7C480 253 510 238 540 226.3C570 214.7 600 206.3 630 208.3C660 210.3 690 222.7 720 223.5C750 224.3 780 213.7 810 211.3C840 209 870 215 885 218L900 221L900 0L885 0C870 0 840 0 810 0C780 0 750 0 720 0C690 0 660 0 630 0C600 0 570 0 540 0C510 0 480 0 450 0C420 0 390 0 360 0C330 0 300 0 270 0C240 0 210 0 180 0C150 0 120 0 90 0C60 0 30 0 15 0L0 0Z" fill="#4838a2"></path><path d="M0 224L15 225.5C30 227 60 230 90 218.8C120 207.7 150 182.3 180 171C210 159.7 240 162.3 270 171C300 179.7 330 194.3 360 208.5C390 222.7 420 236.3 450 232.5C480 228.7 510 207.3 540 205.7C570 204 600 222 630 226.8C660 231.7 690 223.3 720 215.8C750 208.3 780 201.7 810 194.5C840 187.3 870 179.7 885 175.8L900 172L900 0L885 0C870 0 840 0 810 0C780 0 750 0 720 0C690 0 660 0 630 0C600 0 570 0 540 0C510 0 480 0 450 0C420 0 390 0 360 0C330 0 300 0 270 0C240 0 210 0 180 0C150 0 120 0 90 0C60 0 30 0 15 0L0 0Z" fill="#413195"></path><path d="M0 182L15 172.3C30 162.7 60 143.3 90 135.3C120 127.3 150 130.7 180 141.7C210 152.7 240 171.3 270 175.5C300 179.7 330 169.3 360 159.5C390 149.7 420 140.3 450 147.3C480 154.3 510 177.7 540 181.7C570 185.7 600 170.3 630 169.8C660 169.3 690 183.7 720 181.2C750 178.7 780 159.3 810 152.2C840 145 870 150 885 152.5L900 155L900 0L885 0C870 0 840 0 810 0C780 0 750 0 720 0C690 0 660 0 630 0C600 0 570 0 540 0C510 0 480 0 450 0C420 0 390 0 360 0C330 0 300 0 270 0C240 0 210 0 180 0C150 0 120 0 90 0C60 0 30 0 15 0L0 0Z" fill="#392b87"></path><path d="M0 158L15 151.5C30 145 60 132 90 126.5C120 121 150 123 180 119.3C210 115.7 240 106.3 270 103.5C300 100.7 330 104.3 360 109.7C390 115 420 122 450 122.5C480 123 510 117 540 116.8C570 116.7 600 122.3 630 127.8C660 133.3 690 138.7 720 138C750 137.3 780 130.7 810 129.5C840 128.3 870 132.7 885 134.8L900 137L900 0L885 0C870 0 840 0 810 0C780 0 750 0 720 0C690 0 660 0 630 0C600 0 570 0 540 0C510 0 480 0 450 0C420 0 390 0 360 0C330 0 300 0 270 0C240 0 210 0 180 0C150 0 120 0 90 0C60 0 30 0 15 0L0 0Z" fill="#32247a"></path><path d="M0 75L15 77.2C30 79.3 60 83.7 90 82.7C120 81.7 150 75.3 180 73.3C210 71.3 240 73.7 270 72.8C300 72 330 68 360 70.7C390 73.3 420 82.7 450 83.3C480 84 510 76 540 75.3C570 74.7 600 81.3 630 80.2C660 79 690 70 720 72.2C750 74.3 780 87.7 810 95.7C840 103.7 870 106.3 885 107.7L900 109L900 0L885 0C870 0 840 0 810 0C780 0 750 0 720 0C690 0 660 0 630 0C600 0 570 0 540 0C510 0 480 0 450 0C420 0 390 0 360 0C330 0 300 0 270 0C240 0 210 0 180 0C150 0 120 0 90 0C60 0 30 0 15 0L0 0Z" fill="#2a1e6e"></path><path d="M0 62L15 64.2C30 66.3 60 70.7 90 69.8C120 69 150 63 180 58.5C210 54 240 51 270 48C300 45 330 42 360 42.3C390 42.7 420 46.3 450 48.3C480 50.3 510 50.7 540 52C570 53.3 600 55.7 630 56.3C660 57 690 56 720 58.3C750 60.7 780 66.3 810 67C840 67.7 870 63.3 885 61.2L900 59L900 0L885 0C870 0 840 0 810 0C780 0 750 0 720 0C690 0 660 0 630 0C600 0 570 0 540 0C510 0 480 0 450 0C420 0 390 0 360 0C330 0 300 0 270 0C240 0 210 0 180 0C150 0 120 0 90 0C60 0 30 0 15 0L0 0Z" fill="#231861"></path></svg>